# xmcd CD database file
#
# Track frame offsets:
#	150
#	10695
#	20332
#	33972
#	46877
#	61867
#	75677
#	91855
#	114757
#	127532
#	147967
#	159340
#	173672
#	186125
#	204812
#	221632
#	237742
#	256250
#	278240
#	300610
#
# Disc length: 4326 seconds
#
# Revision: 1
# Processed by: cddbd v1.4PL0 Copyright (c) Steve Scherf et al.
# Submitted via: CDex 1.50beta10
#
DISCID=f410e414
DTITLE=chet baker - l'anthologie definitive
DYEAR=2003
DGENRE=Jazz
TTITLE0=My funny Valentine
TTITLE1=Embraceable You
TTITLE2=Do it the hard way
TTITLE3=It could happen to you
TTITLE4=I fall in love too easily
TTITLE5=but not for me
TTITLE6=How high the moon
TTITLE7=I'm old fashioned
TTITLE8=The thrill is gone
TTITLE9=Angel eyes
TTITLE10=The song is you
TTITLE11=Sweet Lorraine
TTITLE12=Time after time
TTITLE13=How long has this been going on ?
TTITLE14=Let's get lost
TTITLE15=When i fall in love
TTITLE16=You and the night and the music
TTITLE17=You don't know what love is
TTITLE18=My old flame
TTITLE19=My funny valentine ( instrumental)
EXTD=YEAR: 2003
EXTT0=
EXTT1=
EXTT2=
EXTT3=
EXTT4=
EXTT5=
EXTT6=
EXTT7=
EXTT8=
EXTT9=
EXTT10=
EXTT11=
EXTT12=
EXTT13=
EXTT14=
EXTT15=
EXTT16=
EXTT17=
EXTT18=
EXTT19=
PLAYORDER=
